<svg viewBox="0 0 232 64" fill="none" xmlns="http://www.w3.org/2000/svg">
<path fill-rule="evenodd" clip-rule="evenodd" d="M40.1794 62.9451C53.8901 59.3308 64 46.846 64 32C64 14.3269 49.6731 0 32 0C14.3269 0 0 14.3269 0 32C0 47.0416 10.378 59.6592 24.3642 63.0833C24.358 59.8015 24.3505 56.1587 24.3467 55.3806C15.4453 57.3112 13.568 51.0881 13.568 51.0881C12.112 47.3948 10.008 46.4081 10.008 46.4081C7.10933 44.4242 10.232 44.4643 10.232 44.4643C13.4453 44.6882 15.1333 47.7593 15.1333 47.7593C17.9867 52.6526 22.624 51.2392 24.4533 50.4206C24.7413 48.3512 25.5653 46.9406 26.48 46.1406C19.3733 45.3406 11.904 42.5895 11.904 30.3281C11.904 26.8348 13.144 23.9806 15.1973 21.7406C14.8373 20.9325 13.7573 17.6798 15.4773 13.2718C15.4773 13.2718 18.1573 12.4131 24.2773 16.5518C26.8373 15.8398 29.5573 15.4878 32.2773 15.4718C34.9973 15.4878 37.7173 15.8398 40.2773 16.5518C46.3573 12.4131 49.0373 13.2718 49.0373 13.2718C50.7573 17.6798 49.6773 20.9325 49.3573 21.7406C51.3973 23.9806 52.6373 26.8348 52.6373 30.3281C52.6373 42.6215 45.1573 45.3276 38.0373 46.1143C39.1573 47.0743 40.1973 49.037 40.1973 52.0343C40.1973 53.6656 40.1877 58.8102 40.1794 62.9451Z" fill="white"/>
<path d="M112.483 29.1209H100.043C99.7352 29.1209 99.458 29.3672 99.458 29.7059V35.7721C99.458 36.0801 99.7044 36.3572 100.043 36.3572H104.878V43.9015C104.878 43.9015 103.8 44.271 100.782 44.271C97.2409 44.271 92.2833 42.9777 92.2833 32.077C92.2833 21.1763 97.4565 19.729 102.291 19.729C106.479 19.729 108.296 20.4681 109.435 20.8376C109.804 20.9607 110.143 20.5912 110.143 20.2525L111.529 14.3711C111.529 14.2171 111.467 14.0323 111.313 13.9092C110.851 13.6012 108.018 12 100.813 12C92.4988 12 84 15.5412 84 32.5081C84 49.475 93.7306 52 101.952 52C108.757 52 112.884 49.1055 112.884 49.1055C113.069 49.0131 113.069 48.7667 113.069 48.6744V29.7059C113.069 29.3672 112.791 29.1209 112.483 29.1209ZM176.533 14.0323C176.533 13.7244 176.286 13.4473 175.948 13.4473H168.958C168.65 13.4473 168.373 13.6936 168.373 14.0323V27.5504H157.472V14.0323C157.472 13.7244 157.226 13.4473 156.887 13.4473H149.897C149.589 13.4473 149.312 13.6936 149.312 14.0323V50.6451C149.312 50.953 149.558 51.2302 149.897 51.2302H156.887C157.195 51.2302 157.472 50.953 157.472 50.6451V34.9715H168.373L168.342 50.6451C168.342 50.953 168.588 51.2302 168.927 51.2302H175.948C176.256 51.2302 176.533 50.953 176.533 50.6451V14.0323Z" fill="white"/>
<path d="M125.694 18.836C125.694 16.311 123.661 14.2787 121.167 14.2787C118.673 14.2787 116.671 16.311 116.671 18.836C116.671 21.361 118.704 23.3934 121.167 23.3934C123.661 23.3934 125.694 21.361 125.694 18.836ZM125.201 42.9161V26.0108C125.201 25.7028 124.955 25.4257 124.616 25.4257H117.626C117.318 25.4257 117.01 25.7644 117.01 26.0723V50.2756C117.01 50.9838 117.441 51.1994 118.026 51.1994H124.308C124.985 51.1994 125.17 50.8606 125.17 50.2756C125.201 48.9823 125.201 43.9014 125.201 42.9161Z" fill="white"/>
<path d="M203.107 25.4872H196.179C195.871 25.4872 195.593 25.7643 195.593 26.0722V44.0245C195.593 44.0245 193.838 45.3178 191.313 45.3178C188.819 45.3178 188.142 44.1785 188.142 41.715V26.0722C188.142 25.7643 187.895 25.4872 187.557 25.4872H180.505C180.197 25.4872 179.92 25.7643 179.92 26.0722V42.916C179.92 50.1831 183.985 51.9691 189.558 51.9691C194.146 51.9691 197.841 49.4441 197.841 49.4441C197.841 49.4441 198.026 50.7681 198.088 50.9221C198.18 51.0761 198.365 51.23 198.611 51.23L203.107 51.1992C203.415 51.1992 203.692 50.9221 203.692 50.6142V26.0414C203.692 25.7643 203.446 25.4872 203.107 25.4872ZM222.106 24.6865C218.165 24.6865 215.486 26.4417 215.486 26.4417V14.0322C215.486 13.7243 215.239 13.4471 214.901 13.4471H207.88C207.572 13.4471 207.295 13.6935 207.295 14.0322V50.645C207.295 50.9529 207.541 51.23 207.88 51.23H212.745C212.961 51.23 213.145 51.1069 213.238 50.9221C213.361 50.7374 213.546 49.2285 213.546 49.2285C213.546 49.2285 216.409 51.9383 221.86 51.9383C228.234 51.9383 231.898 48.705 231.898 37.404C231.867 26.1338 226.048 24.6865 222.106 24.6865ZM219.366 45.287C216.964 45.2254 215.332 44.1169 215.332 44.1169V32.5387C215.332 32.5387 216.933 31.5534 218.934 31.3686C221.429 31.1531 223.831 31.8921 223.831 37.8659C223.8 44.1477 222.722 45.4102 219.366 45.287ZM145.309 25.4256H140.074V18.4972C140.074 18.22 139.951 18.0969 139.643 18.0969H132.499C132.222 18.0969 132.068 18.22 132.068 18.4972V25.6719C132.068 25.6719 128.496 26.5341 128.249 26.5957C128.003 26.6573 127.818 26.9036 127.818 27.15V31.6457C127.818 31.9845 128.065 32.2308 128.403 32.2308H132.068V43.0699C132.068 51.1069 137.703 51.9075 141.521 51.9075C143.276 51.9075 145.339 51.3532 145.678 51.23C145.894 51.1685 146.017 50.9529 146.017 50.7066V45.7489C146.017 45.441 145.74 45.1638 145.432 45.1638C145.124 45.1638 144.354 45.287 143.523 45.287C140.936 45.287 140.074 44.0861 140.074 42.5464V32.2616H145.309C145.617 32.2616 145.894 32.0153 145.894 31.6765V26.0106C145.863 25.7027 145.617 25.4256 145.309 25.4256Z" fill="white"/>
</svg>
