<svg viewBox="0 0 14 14" fill="none" xmlns="http://www.w3.org/2000/svg">
<path d="M8.60719 1H13.0001M13.0001 1V5.39289M13.0001 1L5.9286 8.07148M4.75003 1.03589C4.01462 1.08079 3.49288 1.18173 3.04755 1.40864C2.34194 1.76817 1.76826 2.34185 1.40873 3.04746C1 3.84964 1 4.89974 1 6.99995C1 9.10017 1 10.1503 1.40873 10.9524C1.76826 11.6581 2.34194 12.2317 3.04755 12.5913C3.84973 13 4.89983 13 7.00005 13C9.10026 13 10.1504 13 10.9525 12.5913C11.6582 12.2317 12.2318 11.6581 12.5914 10.9524C12.8183 10.5071 12.9192 9.98538 12.9641 9.24997" stroke="#8F5CFD" stroke-width="2" stroke-linecap="round" stroke-linejoin="round"/>
</svg>
