<svg viewBox="0 0 980 96" fill="none" xmlns="http://www.w3.org/2000/svg">
<path d="M80.8517 1.27757V94.7224H59.6806L25.9163 45.6274H25.3688V94.7224H0V1.27757H21.5361L54.7528 50.1901H55.4829V1.27757H80.8517Z" fill="black"/>
<path d="M183.376 48C183.376 58.403 181.354 67.1787 177.308 74.327C173.262 81.4449 167.802 86.8441 160.928 90.5247C154.053 94.1749 146.388 96 137.932 96C129.414 96 121.719 94.1597 114.844 90.4791C108 86.7681 102.555 81.3536 98.5095 74.2357C94.4943 67.0875 92.4867 58.3422 92.4867 48C92.4867 37.597 94.4943 28.8365 98.5095 21.7186C102.555 14.5703 108 9.1711 114.844 5.52091C121.719 1.8403 129.414 0 137.932 0C146.388 0 154.053 1.8403 160.928 5.52091C167.802 9.1711 173.262 14.5703 177.308 21.7186C181.354 28.8365 183.376 37.597 183.376 48ZM157.278 48C157.278 42.403 156.532 37.6882 155.042 33.8555C153.582 29.9924 151.407 27.0722 148.517 25.0951C145.658 23.0875 142.129 22.0836 137.932 22.0836C133.734 22.0836 130.19 23.0875 127.3 25.0951C124.441 27.0722 122.266 29.9924 120.776 33.8555C119.316 37.6882 118.586 42.403 118.586 48C118.586 53.597 119.316 58.327 120.776 62.1901C122.266 66.0228 124.441 68.943 127.3 70.9506C130.19 72.9278 133.734 73.9163 137.932 73.9163C142.129 73.9163 145.658 72.9278 148.517 70.9506C151.407 68.943 153.582 66.0228 155.042 62.1901C156.532 58.327 157.278 53.597 157.278 48Z" fill="black"/>
<path d="M188.167 21.7186V1.27757H269.384V21.7186H241.278V94.7224H216.274V21.7186H188.167Z" fill="black"/>
<path d="M304.3 1.27757V94.7224H278.932V1.27757H304.3Z" fill="black"/>
<path d="M406.848 48C406.848 58.403 404.825 67.1787 400.779 74.327C396.734 81.4449 391.274 86.8441 384.399 90.5247C377.525 94.1749 369.859 96 361.403 96C352.886 96 345.19 94.1597 338.316 90.4791C331.471 86.7681 326.027 81.3536 321.981 74.2357C317.966 67.0875 315.958 58.3422 315.958 48C315.958 37.597 317.966 28.8365 321.981 21.7186C326.027 14.5703 331.471 9.1711 338.316 5.52091C345.19 1.8403 352.886 0 361.403 0C369.859 0 377.525 1.8403 384.399 5.52091C391.274 9.1711 396.734 14.5703 400.779 21.7186C404.825 28.8365 406.848 37.597 406.848 48ZM380.749 48C380.749 42.403 380.004 37.6882 378.513 33.8555C377.053 29.9924 374.878 27.0722 371.989 25.0951C369.129 23.0875 365.601 22.0836 361.403 22.0836C357.205 22.0836 353.662 23.0875 350.772 25.0951C347.913 27.0722 345.738 29.9924 344.247 33.8555C342.787 37.6882 342.057 42.403 342.057 48C342.057 53.597 342.787 58.327 344.247 62.1901C345.738 66.0228 347.913 68.943 350.772 70.9506C353.662 72.9278 357.205 73.9163 361.403 73.9163C365.601 73.9163 369.129 72.9278 371.989 70.9506C374.878 68.943 377.053 66.0228 378.513 62.1901C380.004 58.327 380.749 53.597 380.749 48Z" fill="black"/>
<path d="M499.437 1.27757V94.7224H478.266L444.502 45.6274H443.954V94.7224H418.586V1.27757H440.122L473.338 50.1901H474.068V1.27757H499.437Z" fill="black"/>
<path d="M540.156 32.943H534.133V44.9886H522.087V51.0114H534.133V63.057H540.156V51.0114H552.202V44.9886H540.156V32.943Z" fill="white"/>
<path d="M574.852 94.7224V1.27757H600.221V74.2814H638V94.7224H574.852Z" fill="white"/>
<path d="M627.483 1.27757H655.772L674.023 39.2395H674.753L693.004 1.27757H721.293L686.981 65.3384V94.7224H661.795V65.3384L627.483 1.27757Z" fill="white"/>
<path d="M729.563 94.7224V1.27757H754.932V39.057H756.209L784.316 1.27757H813.882L782.308 42.8897L814.612 94.7224H784.316L763.327 59.6806L754.932 70.6312V94.7224H729.563Z" fill="white"/>
<path d="M821.411 94.7224V1.27757H888.757V21.7186H846.78V37.7795H885.289V58.2205H846.78V74.2814H888.574V94.7224H821.411Z" fill="white"/>
<path d="M898.783 21.7186V1.27757H980V21.7186H951.894V94.7224H926.89V21.7186H898.783Z" fill="white"/>
</svg>
